<svg xmlns="http://www.w3.org/2000/svg" viewBox="0 0 64 64" fill="none">
  <defs>
    <linearGradient id="surface" x1="8" y1="6" x2="56" y2="59" gradientUnits="userSpaceOnUse">
      <stop stop-color="#DFFF7A"/>
      <stop offset="0.48" stop-color="#78F6C1"/>
      <stop offset="1" stop-color="#66D7FF"/>
    </linearGradient>
    <linearGradient id="shine" x1="15" y1="10" x2="43" y2="48" gradientUnits="userSpaceOnUse">
      <stop stop-color="white" stop-opacity="0.78"/>
      <stop offset="1" stop-color="white" stop-opacity="0"/>
    </linearGradient>
    <filter id="glow" x="-30%" y="-30%" width="160%" height="160%">
      <feGaussianBlur stdDeviation="2.2" result="blur"/>
      <feComposite in="SourceGraphic" in2="blur" operator="over"/>
    </filter>
  </defs>
  <rect x="4" y="4" width="56" height="56" rx="18" fill="url(#surface)"/>
  <rect x="5" y="5" width="54" height="54" rx="17" stroke="white" stroke-opacity="0.62" stroke-width="2"/>
  <path d="M17 22.5C17 19.462 19.462 17 22.5 17H39L47 25V41.5C47 44.538 44.538 47 41.5 47H25L17 39V22.5Z" fill="#07130E" fill-opacity="0.94"/>
  <path d="M22 17V36.5C22 39.538 24.462 42 27.5 42H47" stroke="url(#shine)" stroke-width="1.5" opacity="0.7"/>
  <path d="M26 32H39M35 27.5L39.5 32L35 36.5" stroke="#A9FFD9" stroke-width="3.25" stroke-linecap="round" stroke-linejoin="round" filter="url(#glow)"/>
  <path d="M39 17V23C39 24.105 39.895 25 41 25H47" stroke="#A9FFD9" stroke-opacity="0.68" stroke-width="1.5"/>
</svg>
